<?xml version="1.0" encoding="UTF-8"?> <!-- Creator: CorelDRAW X8 --> <svg xmlns="http://www.w3.org/2000/svg" xmlns:xlink="http://www.w3.org/1999/xlink" xml:space="preserve" width="250.3998mm" height="80.6358mm" style="shape-rendering:geometricPrecision; text-rendering:geometricPrecision; image-rendering:optimizeQuality; fill-rule:evenodd; clip-rule:evenodd" viewBox="0 0 2540 864"> <defs> <style type="text/css"> <![CDATA[ .fil0 {fill:#2D5495} ]]> </style> </defs> <g id="Camada_x0020_1"> <metadata id="CorelCorpID_0Corel-Layer"></metadata> <g> <path class="fil0" d="M1270 -1c699,0 1270,195 1270,433 0,238 -571,432 -1270,432 -699,0 -1270,-194 -1270,-432 0,-238 571,-433 1270,-433zm385 329l-99 233 75 0 59 -141c24,-36 95,-36 77,4l-59 137 70 0 82 -184c16,-31 -51,-73 -143,-21l9 -28 -71 0zm250 0l-100 233 75 0 59 -141c24,-36 95,-36 78,4l-60 137 70 0 82 -184c16,-31 -51,-73 -143,-21l9 -28 -70 0zm-450 3l103 0c24,-1 61,29 51,55l-17 49c-7,18 -29,36 -47,36l-124 2c-19,0 -17,32 -6,31l132 1 -24 56 -143 0c-35,-2 -62,-32 -44,-74l57 -125c10,-18 39,-32 62,-31zm-12 86l90 -2c18,0 25,-38 0,-38l-61 0c-27,0 -50,35 -29,40zm-1304 -89c83,32 225,18 450,-73 42,-7 52,18 56,47 169,-114 396,-131 396,-47 113,-67 196,-80 266,-69 66,17 83,74 54,143l26 -1 -23 54 -32 0c0,0 -1,1 -1,2 -42,58 -79,138 -105,238l-142 0c36,-87 93,-163 161,-241l-37 -1 18 -50 65 -1c2,-2 4,-4 6,-6 71,-79 -70,-122 -204,-21 -83,104 -154,211 -217,320l-151 0c71,-102 134,-204 240,-306 42,-50 5,-67 -96,-43 -106,21 -225,109 -355,349l-160 0c68,-100 142,-193 229,-274 26,-33 10,-41 -41,-20 -142,74 -304,107 -478,111 15,166 552,300 1208,300 665,0 1208,-138 1208,-307 0,-170 -543,-308 -1208,-308 -527,0 -978,87 -1142,207 0,0 0,0 0,0 3,-1 6,-2 9,-3zm-84 111c0,0 0,0 0,0 0,0 0,0 0,0zm-1 0c0,0 -1,0 -1,0 0,0 1,0 1,0zm-2 -7c0,0 0,-1 1,-1 -1,0 -1,1 -1,1zm1 -3c0,0 0,0 0,0 0,0 0,0 0,0zm1 -2c0,-1 0,-1 0,-1 0,0 0,0 0,1zm0 -3c0,0 0,0 1,-1 -1,1 -1,1 -1,1zm1 -2c0,0 0,-1 0,-1 0,0 0,1 0,1zm1 -2c0,-1 0,-1 0,-2 0,1 0,1 0,2zm1 -3c0,0 0,-1 0,-1 0,0 0,1 0,1zm0 -2c0,-1 1,-1 1,-1 0,0 -1,0 -1,1zm1 -3c0,0 0,0 0,0 0,0 0,0 0,0zm1 -2c0,0 0,-1 0,-1 1,0 1,-1 1,-2 0,0 0,-1 1,-2 0,0 0,0 0,0 0,0 0,-1 1,-2 0,0 0,-1 0,-1 0,-1 0,-1 1,-1 -1,0 -1,0 -1,1l-3 8zm5 -13c0,0 0,0 1,-1 -1,1 -1,1 -1,1zm1 -2c0,0 0,0 0,-1 0,1 0,1 0,1zm1 -2c0,0 0,-1 1,-1 -1,0 -1,1 -1,1zm1 -2c0,0 0,-1 1,-1 -1,0 -1,1 -1,1zm1 -2c0,0 1,-1 1,-1 0,0 -1,1 -1,1zm1 -2c0,0 1,-1 1,-1 0,0 -1,1 -1,1zm1 -2c1,0 1,-1 1,-1 0,0 0,1 -1,1zm1 -2c1,0 1,0 1,-1 0,1 0,1 -1,1zm2 -2c0,0 0,0 0,0 0,0 0,0 0,0zm1 -2c0,0 0,0 0,0 0,-1 1,-1 1,-2 0,0 1,-1 1,-2 0,0 0,0 0,0 0,0 0,0 0,0l-2 4zm6 -9c0,0 0,0 0,0 0,0 0,0 0,0zm1 -1c0,0 0,0 0,-1 0,1 0,1 0,1zm1 -2c0,0 0,0 0,0 0,0 0,0 0,0zm1 -1c0,-1 1,-1 1,-1 0,0 -1,0 -1,1zm2 -2c0,0 0,0 0,0 0,0 0,0 0,0zm1 -2c0,0 0,0 0,0 0,0 0,0 0,0zm1 -1c1,0 1,0 1,-1 0,1 0,1 -1,1zm2 -2c0,0 0,0 0,0 0,0 0,0 0,0zm1 -1c0,0 1,-1 1,-1 0,0 -1,1 -1,1zm2 -2c0,0 0,0 0,0 0,0 0,0 0,0zm7 -6c0,0 0,0 0,-1 0,1 0,1 0,1zm1 -1c0,0 1,-1 1,-1 0,0 -1,1 -1,1zm2 -2c0,0 0,0 0,0 0,0 0,0 0,0zm2 -1c0,0 0,0 0,0 0,0 0,0 0,0zm1 -1c0,0 0,0 1,0 -1,0 -1,0 -1,0zm2 -1c0,0 0,-1 0,-1 0,0 0,1 0,1zm2 -1c0,-1 0,-1 0,-1 0,0 0,0 0,1zm1 -2c0,0 0,0 0,0 0,0 0,0 0,0zm14 -7c0,0 0,0 1,0 -1,0 -1,0 -1,0zm2 -1c0,0 0,0 0,0 0,0 0,0 0,0zm2 -1c0,0 0,0 0,0 0,0 0,0 0,0zm2285 66c8,0 17,2 25,7 8,4 14,10 19,18 4,8 6,16 6,25 0,8 -2,16 -6,24 -5,8 -11,14 -19,18 -8,5 -16,7 -25,7 -9,0 -17,-2 -25,-7 -8,-4 -15,-10 -19,-18 -5,-8 -7,-16 -7,-24 0,-9 2,-17 7,-25 5,-8 11,-14 19,-18 8,-5 16,-7 25,-7zm0 8c-7,0 -14,2 -21,6 -7,3 -12,8 -16,15 -4,7 -5,13 -5,21 0,7 1,14 5,20 4,7 9,12 16,15 7,4 13,6 21,6 7,0 14,-2 21,-6 6,-3 12,-8 15,-15 4,-6 6,-13 6,-20 0,-8 -2,-14 -6,-21 -4,-7 -9,-12 -16,-15 -6,-4 -13,-6 -20,-6zm-22 69l0 -53 18 0c7,0 11,0 14,1 3,1 5,3 7,5 2,3 3,5 3,8 0,4 -2,7 -5,10 -3,3 -6,5 -11,5 2,1 3,2 5,3 2,2 4,6 8,10l6 11 -10 0 -5 -9c-4,-6 -7,-10 -9,-12 -2,-1 -4,-2 -7,-2l-6 0 0 23 -8 0zm8 -30l11 0c5,0 9,-1 10,-2 2,-2 3,-4 3,-6 0,-2 0,-3 -1,-4 -1,-2 -2,-3 -4,-3 -1,-1 -4,-1 -9,-1l-10 0 0 16zm-199 -112c-32,1 -53,10 -64,36l-55 133c-8,27 17,57 45,59l124 0c17,0 32,-11 42,-31l55 -128c11,-21 -9,-64 -40,-66l-107 -3zm-9 71l-33 79c-6,14 1,25 16,26l43 -2c8,1 15,-1 19,-11l35 -80c5,-15 1,-24 -14,-23l-48 1c-7,0 -12,2 -18,10zm-2140 35c0,-1 0,-2 0,-3 0,-1 1,-1 1,-2 0,0 0,0 0,0l-1 5zm8 -29c0,0 0,-1 0,-1l0 1zm15 -31c0,0 0,0 0,0l0 0z"></path> </g> </g> </svg> 